<?xml version="1.0" encoding="UTF-8" standalone="no"?>
<!DOCTYPE svg PUBLIC "-//W3C//DTD SVG 20010904//EN"
"http://www.w3.org/TR/2001/REC-SVG-20010904/DTD/svg10.dtd">
<!-- Created with Sodipodi ("http://www.sodipodi.com/") -->
<svg
   id="svg563"
   sodipodi:version="0.33"
   width="100"
   height="100"
   sodipodi:docname="/home/kenny/ent/wiki/Human_face_profile_icon.svg"
   sodipodi:docbase="/home/kenny/ent/wiki/"
   xmlns="http://www.w3.org/2000/svg"
   xmlns:sodipodi="http://sodipodi.sourceforge.net/DTD/sodipodi-0.dtd"
   xmlns:xlink="http://www.w3.org/1999/xlink">
  <defs
     id="defs565" />
  <sodipodi:namedview
     id="base"
     gridspacingy="14.17323pt"
     gridspacingx="14.17323pt"
     snaptogrid="false"
     showgrid="false"
     gridtolerance="5.000000px"
     snaptoguides="false"
     showborder="true" />
  <path
     style="font-size:12.000;fill-opacity:0.9259;fill-rule:evenodd;stroke:none;stroke-width:0.142558;fill:#956630;"
     d="M 50.25998 100.4447 C 49.19054 73.46665 21.28030 91.78629 20.90139 80.43868 C 20.77864 76.73124 21.61157 76.05116 21.58725 73.90897 C 21.62896 72.48835 21.33315 71.61059 21.09158 70.83812 C 21.15820 68.66355 22.34646 67.74407 26.91151 67.76206 C 22.57154 67.36115 20.70773 67.88541 20.86416 65.17472 C 22.19277 63.72250 22.86392 61.31250 22.82127 57.49887 C 22.76831 52.85899 17.30234 57.57255 17.23771 52.55951 C 16.91635 47.66715 26.48905 42.87159 26.84833 38.07078 C 27.17906 33.89742 26.42455 32.23668 26.65596 27.48330 C 27.28510 13.52015 49.11942 1.211151 63.67169 1.724196 C 79.78389 2.307230 90.79439 6.894839 91.16761 21.92094 C 91.84045 49.55751 79.21575 52.43697 77.55337 100.7926 "
     id="path562"
     sodipodi:nodetypes="csscccsssssss" />
</svg>
